<?xml version="1.0" standalone="no"?>
<!DOCTYPE svg PUBLIC "-//W3C//DTD SVG 20010904//EN"
 "http://www.w3.org/TR/2001/REC-SVG-20010904/DTD/svg10.dtd">
<svg version="1.0" xmlns="http://www.w3.org/2000/svg"
 width="300.000000pt" height="300.000000pt" viewBox="0 0 300.000000 300.000000"
 preserveAspectRatio="xMidYMid meet">
<metadata>
Created by potrace 1.14, written by Peter Selinger 2001-2017
</metadata>
<g transform="translate(0.000000,300.000000) scale(0.100000,-0.100000)"
fill="#000000" stroke="none">
<path d="M1530 2760 c0 -40 0 -40 -39 -40 -40 0 -40 0 -43 -42 -3 -43 -3 -43
-45 -46 -43 -3 -43 -3 -43 -43 0 -39 0 -39 -40 -39 l-40 0 0 -80 0 -80 40 0
c40 0 40 0 40 -39 0 -40 0 -40 43 -43 42 -3 42 -3 45 -46 l3 -43 77 3 77 3 3
43 c3 42 3 42 43 42 l39 0 0 79 0 80 43 3 42 3 3 83 3 82 39 0 c40 0 40 0 40
40 l0 40 -85 0 -85 0 0 40 0 40 -80 0 -80 0 0 -40z"/>
<path d="M450 2470 l0 -80 45 0 45 0 0 -39 c0 -39 1 -40 38 -43 36 -3 37 -4
40 -45 l3 -43 125 0 124 0 0 -40 0 -40 205 0 205 0 0 80 0 80 -40 0 -40 0 0
45 0 45 -40 0 c-40 0 -40 0 -40 40 l0 40 -167 2 -168 3 -3 38 -3 37 -165 0
-164 0 0 -80z"/>
<path d="M1530 2100 l0 -40 -289 0 -290 0 -3 -42 -3 -43 -83 -3 -83 -3 3 -37
c3 -37 3 -37 -39 -40 -43 -3 -43 -3 -43 -43 l0 -39 -80 0 -79 0 -3 -82 -3 -83
-42 -3 c-43 -3 -43 -3 -43 -43 0 -39 0 -39 -40 -39 l-40 0 0 -125 0 -125 -40
0 -40 0 0 -120 0 -120 40 0 40 0 0 -125 0 -125 40 0 c40 0 40 0 40 -39 0 -40
0 -40 43 -43 l42 -3 3 -83 3 -82 39 0 c40 0 40 0 40 -40 l0 -40 79 0 80 0 3
-37 3 -38 83 -3 82 -3 0 -45 0 -44 163 2 162 3 3 43 3 42 205 0 204 0 0 40 0
40 45 0 45 0 0 40 0 40 80 0 80 0 0 39 c0 40 0 40 43 43 42 3 42 3 42 43 0 40
0 40 43 43 42 3 42 3 42 43 0 39 0 39 40 39 l40 0 0 40 0 40 40 0 40 0 0 205
0 205 -40 0 -40 0 0 45 0 45 40 0 40 0 0 40 0 40 -80 0 -80 0 0 40 0 40 40 0
c40 0 40 0 40 40 l0 39 -122 3 -123 3 -3 43 -3 42 -80 0 -79 0 0 40 0 40 -45
0 -45 0 0 -40 0 -40 -165 0 -165 0 0 -45 0 -45 -80 0 -80 0 0 -80 0 -80 -40 0
-40 0 0 -165 0 -165 40 0 40 0 0 -40 0 -40 40 0 40 0 0 -45 0 -46 83 3 82 3 3
43 c3 42 3 42 43 42 l39 0 0 80 0 80 -40 0 -40 0 0 85 0 85 40 0 40 0 0 40 0
40 80 0 80 0 0 -40 0 -40 125 0 125 0 0 -125 0 -125 40 0 c47 0 53 -13 48
-105 l-3 -60 -42 -3 -43 -3 0 -80 0 -79 -125 0 -125 0 0 -40 0 -40 -162 -2
-163 -3 -3 -43 -3 -42 -162 2 -162 3 -3 43 -3 42 -125 0 -124 0 0 40 0 40 -40
0 -40 0 0 40 0 40 -40 0 -40 0 0 125 0 125 -40 0 c-40 0 -40 0 -40 39 0 39 1
40 38 43 l37 3 3 123 3 122 39 0 c40 0 40 0 40 39 0 40 0 40 43 43 42 3 42 3
39 40 l-3 37 83 3 83 3 3 43 c3 42 3 42 43 42 39 0 39 0 39 40 l0 40 125 0
125 0 0 40 0 39 123 3 122 3 3 38 3 37 250 0 251 0 -4 -37 -3 -38 43 -3 c42
-3 42 -3 42 -43 l0 -39 80 0 80 0 0 -39 c0 -40 0 -40 43 -43 42 -3 42 -3 45
-45 3 -43 3 -43 43 -43 l39 0 0 -80 0 -80 40 0 40 0 0 -85 0 -85 40 0 40 0 0
-80 0 -80 -40 0 -40 0 0 -205 0 -205 -80 0 -79 0 -3 -82 -3 -83 -42 -3 c-43
-3 -43 -3 -43 -43 l0 -39 -80 0 -80 0 0 -40 0 -40 -125 0 -125 0 0 -85 0 -85
40 0 40 0 0 -40 0 -40 125 0 125 0 0 40 0 40 40 0 c40 0 40 0 40 40 l0 39 123
3 122 3 3 123 3 122 39 0 39 0 3 83 3 82 43 3 c42 3 42 3 42 43 0 39 0 39 40
39 l40 0 0 205 0 205 40 0 40 0 0 85 0 85 -40 0 -40 0 0 80 0 80 -40 0 -40 0
0 125 0 125 -85 0 -85 0 0 40 0 40 -40 0 -40 0 0 40 c0 40 0 40 -39 40 -40 0
-40 0 -43 43 l-3 42 -82 3 -83 3 0 39 0 40 -330 0 -330 0 0 -40z"/>
</g>
</svg>
